<?xml version="1.0" standalone="no"?>
<!DOCTYPE svg PUBLIC "-//W3C//DTD SVG 20010904//EN"
 "http://www.w3.org/TR/2001/REC-SVG-20010904/DTD/svg10.dtd">
<svg version="1.0" xmlns="http://www.w3.org/2000/svg"
 width="350.000000pt" height="75.000000pt" viewBox="0 0 350.000000 75.000000"
 preserveAspectRatio="xMidYMid meet">
<metadata>
Created by potrace 1.16, written by Peter Selinger 2001-2019
</metadata>
<g transform="translate(0.000000,75.000000) scale(0.100000,-0.100000)"
fill="#000000" stroke="none">
<path d="M1510 519 c-32 -12 -38 -18 -22 -18 19 -1 22 -6 22 -39 l0 -38 -53 0
c-96 1 -137 -40 -137 -136 0 -71 26 -113 80 -129 29 -9 50 -9 75 -2 19 6 35 7
37 3 2 -4 23 0 48 11 31 12 38 18 23 18 -22 1 -23 3 -25 175 l-3 174 -45 -19z
m-2 -221 c2 -100 1 -108 -18 -118 -32 -17 -71 -8 -94 23 -32 43 -30 146 4 182
20 21 32 25 65 23 l40 -3 3 -107z"/>
<path d="M2820 519 c-32 -12 -38 -18 -22 -18 22 -1 22 -1 22 -177 0 -164 1
-176 18 -168 19 8 40 8 93 -1 45 -8 101 14 124 49 41 62 25 166 -31 202 -28
19 -81 24 -126 11 l-27 -7 -3 64 -3 64 -45 -19z m176 -130 c13 -14 20 -40 22
-88 4 -61 2 -70 -23 -99 -28 -34 -68 -42 -106 -22 -17 9 -19 22 -19 105 0 86
2 95 22 109 32 23 81 20 104 -5z"/>
<path d="M393 503 c15 -4 17 -21 17 -168 0 -147 -2 -164 -17 -168 -10 -3 11
-5 47 -5 36 0 57 2 48 5 -15 4 -18 17 -18 84 l0 79 41 0 c28 0 46 -6 55 -17
12 -16 13 -13 13 27 0 40 -1 43 -13 28 -9 -12 -27 -18 -55 -18 l-41 0 0 70 0
70 61 0 c47 0 65 -4 75 -17 12 -16 13 -15 14 10 l0 27 -122 -1 c-68 -1 -115
-3 -105 -6z"/>
<path d="M2103 503 c15 -4 17 -21 17 -168 0 -147 -2 -164 -17 -168 -10 -3 11
-5 47 -5 36 0 57 2 48 5 -15 4 -18 17 -18 84 l0 79 75 0 75 0 0 -79 c0 -67 -3
-80 -17 -84 -10 -3 11 -5 47 -5 36 0 57 2 48 5 -16 4 -18 21 -18 168 0 147 2
164 18 168 9 3 -12 5 -48 5 -36 0 -57 -2 -47 -5 14 -4 17 -16 17 -79 l0 -74
-75 0 -75 0 0 74 c0 63 3 75 18 79 9 3 -12 5 -48 5 -36 0 -57 -2 -47 -5z"/>
<path d="M732 419 c-47 -14 -72 -60 -72 -131 0 -46 5 -62 25 -87 52 -61 157
-66 210 -11 23 24 29 41 32 87 4 65 -8 96 -48 126 -31 23 -100 30 -147 16z
m113 -35 c33 -36 43 -119 20 -168 -45 -94 -155 -35 -155 82 0 45 21 97 42 105
33 13 70 6 93 -19z"/>
<path d="M1062 419 c-47 -14 -72 -60 -72 -131 0 -46 5 -62 25 -87 52 -61 157
-66 210 -11 23 24 29 41 32 87 4 65 -8 96 -48 126 -31 23 -100 30 -147 16z
m113 -35 c33 -36 43 -119 20 -168 -45 -94 -155 -35 -155 82 0 45 21 97 42 105
33 13 70 6 93 -19z"/>
<path d="M1864 416 c-17 -8 -39 -24 -48 -37 -20 -30 -21 -129 -1 -168 21 -41
77 -65 133 -57 50 7 96 31 87 47 -4 5 -17 1 -32 -11 -49 -39 -112 -18 -139 46
-26 62 -24 64 81 64 89 0 95 1 95 20 0 37 -30 81 -65 96 -42 17 -71 17 -111 0z"/>
<path d="M2478 410 c21 -9 22 -15 22 -107 0 -119 10 -139 74 -148 31 -5 52 -2
74 9 25 13 31 13 34 2 2 -11 11 -10 48 5 32 12 38 18 23 18 -22 1 -23 4 -23
116 l0 115 -47 -1 c-39 0 -44 -2 -25 -9 21 -9 22 -15 22 -109 0 -92 -2 -101
-22 -115 -29 -20 -72 -20 -92 0 -13 12 -16 39 -16 125 l0 109 -47 -1 c-39 0
-44 -2 -25 -9z"/>
</g>
</svg>
